<svg width="12" height="15" viewBox="0 0 12 15" fill="none" xmlns="http://www.w3.org/2000/svg">
<path fill-rule="evenodd" clip-rule="evenodd" d="M5.75322 0.643066C5.69906 0.666529 5.6188 0.719841 5.57488 0.761535C5.42127 0.90732 5.40265 0.973321 5.38749 1.42525L5.37342 1.84438L5.11589 1.89634C4.61906 1.99658 4.08287 2.2244 3.6151 2.53403C3.28563 2.75209 2.7194 3.32139 2.49349 3.66169C2.19534 4.11086 1.98195 4.61228 1.86368 5.14172C1.81332 5.36712 1.80485 5.5432 1.78639 6.7453C1.76349 8.23728 1.74858 8.39044 1.57492 8.9156C1.36164 9.56052 1.04216 10.0646 0.511769 10.5928C0.05199 11.0508 0 11.1487 0 11.5561C0 11.8057 0.00866499 11.8551 0.0769721 11.9941C0.225824 12.2972 0.519562 12.5194 0.854852 12.5825C1.07305 12.6236 10.8897 12.6217 11.1144 12.5805C11.4374 12.5213 11.7312 12.2962 11.8796 11.9941C11.9479 11.8551 11.9566 11.8057 11.9566 11.5561C11.9566 11.1516 11.9006 11.0438 11.4701 10.619C11.1044 10.2583 10.9396 10.055 10.7427 9.72189C10.4976 9.30741 10.33 8.85455 10.2395 8.36295C10.1996 8.14543 10.1866 7.84435 10.17 6.7453C10.1519 5.54137 10.1435 5.36746 10.093 5.14172C9.90566 4.30464 9.54879 3.65862 8.93411 3.04392C8.32717 2.43692 7.63242 2.05608 6.84067 1.89634L6.58314 1.84438L6.56908 1.42525C6.55391 0.973321 6.53529 0.907377 6.38168 0.761478C6.21665 0.604721 5.95541 0.555488 5.75322 0.643066ZM3.7839 13.2432C3.7839 13.3365 3.9597 13.7569 4.07693 13.944C4.56079 14.7162 5.49915 15.1318 6.3767 14.9625C6.99405 14.8434 7.50858 14.5009 7.85757 13.9766C7.98175 13.7901 8.16974 13.3559 8.17173 13.2511C8.1726 13.2046 8.04978 13.2018 5.97828 13.2018C4.06557 13.2018 3.7839 13.2072 3.7839 13.2432Z" fill="#AFB6C6"/>
</svg>
