<svg width="14" height="14" viewBox="0 0 14 14" fill="none" xmlns="http://www.w3.org/2000/svg">
<path d="M12.7369 2.09786H9.87258V1.63086C9.87258 0.795914 9.1933 0.116638 8.35836 0.116638H5.6356C4.80065 0.116638 4.12137 0.795914 4.12137 1.63086V2.09786H1.25709C1.04482 2.09786 0.875 2.26768 0.875 2.47995C0.875 2.69223 1.04482 2.86205 1.25709 2.86205H1.94769V11.8398C1.94769 12.9663 2.86471 13.8833 3.99118 13.8833H10.0028C11.1292 13.8833 12.0463 12.9663 12.0463 11.8398V2.86205H12.7369C12.9491 2.86205 13.119 2.69223 13.119 2.47995C13.119 2.26768 12.9491 2.09786 12.7369 2.09786ZM4.88556 1.63086C4.88556 1.21763 5.22237 0.880824 5.6356 0.880824H8.35836C8.77159 0.880824 9.10839 1.21763 9.10839 1.63086V2.09786H4.88556V1.63086ZM11.2821 11.8398C11.2821 12.5446 10.7075 13.1191 10.0028 13.1191H3.99118C3.28643 13.1191 2.71188 12.5446 2.71188 11.8398V2.86205H11.2849V11.8398H11.2821Z" fill="#1E212A"/>
<path d="M12.7369 2.09786H9.87258V1.63086C9.87258 0.795914 9.1933 0.116638 8.35836 0.116638H5.6356C4.80065 0.116638 4.12137 0.795914 4.12137 1.63086V2.09786H1.25709C1.04482 2.09786 0.875 2.26768 0.875 2.47995C0.875 2.69223 1.04482 2.86205 1.25709 2.86205H1.94769V11.8398C1.94769 12.9663 2.86471 13.8833 3.99118 13.8833H10.0028C11.1292 13.8833 12.0463 12.9663 12.0463 11.8398V2.86205H12.7369C12.9491 2.86205 13.119 2.69223 13.119 2.47995C13.119 2.26768 12.9491 2.09786 12.7369 2.09786ZM4.88556 1.63086C4.88556 1.21763 5.22237 0.880824 5.6356 0.880824H8.35836C8.77159 0.880824 9.10839 1.21763 9.10839 1.63086V2.09786H4.88556V1.63086ZM11.2821 11.8398C11.2821 12.5446 10.7075 13.1191 10.0028 13.1191H3.99118C3.28643 13.1191 2.71188 12.5446 2.71188 11.8398V2.86205H11.2849V11.8398H11.2821Z" fill="#1E212A" fill-opacity="0.8"/>
<path d="M12.7369 2.09786H9.87258V1.63086C9.87258 0.795914 9.1933 0.116638 8.35836 0.116638H5.6356C4.80065 0.116638 4.12137 0.795914 4.12137 1.63086V2.09786H1.25709C1.04482 2.09786 0.875 2.26768 0.875 2.47995C0.875 2.69223 1.04482 2.86205 1.25709 2.86205H1.94769V11.8398C1.94769 12.9663 2.86471 13.8833 3.99118 13.8833H10.0028C11.1292 13.8833 12.0463 12.9663 12.0463 11.8398V2.86205H12.7369C12.9491 2.86205 13.119 2.69223 13.119 2.47995C13.119 2.26768 12.9491 2.09786 12.7369 2.09786ZM4.88556 1.63086C4.88556 1.21763 5.22237 0.880824 5.6356 0.880824H8.35836C8.77159 0.880824 9.10839 1.21763 9.10839 1.63086V2.09786H4.88556V1.63086ZM11.2821 11.8398C11.2821 12.5446 10.7075 13.1191 10.0028 13.1191H3.99118C3.28643 13.1191 2.71188 12.5446 2.71188 11.8398V2.86205H11.2849V11.8398H11.2821Z" stroke="#1E212A" stroke-width="0.15"/>
<path d="M12.7369 2.09786H9.87258V1.63086C9.87258 0.795914 9.1933 0.116638 8.35836 0.116638H5.6356C4.80065 0.116638 4.12137 0.795914 4.12137 1.63086V2.09786H1.25709C1.04482 2.09786 0.875 2.26768 0.875 2.47995C0.875 2.69223 1.04482 2.86205 1.25709 2.86205H1.94769V11.8398C1.94769 12.9663 2.86471 13.8833 3.99118 13.8833H10.0028C11.1292 13.8833 12.0463 12.9663 12.0463 11.8398V2.86205H12.7369C12.9491 2.86205 13.119 2.69223 13.119 2.47995C13.119 2.26768 12.9491 2.09786 12.7369 2.09786ZM4.88556 1.63086C4.88556 1.21763 5.22237 0.880824 5.6356 0.880824H8.35836C8.77159 0.880824 9.10839 1.21763 9.10839 1.63086V2.09786H4.88556V1.63086ZM11.2821 11.8398C11.2821 12.5446 10.7075 13.1191 10.0028 13.1191H3.99118C3.28643 13.1191 2.71188 12.5446 2.71188 11.8398V2.86205H11.2849V11.8398H11.2821Z" stroke="#1E212A" stroke-opacity="0.8" stroke-width="0.15"/>
</svg>
