<svg width="4" height="12" viewBox="0 0 4 12" fill="none" xmlns="http://www.w3.org/2000/svg">
<mask id="mask0_1_344" style="mask-type:alpha" maskUnits="userSpaceOnUse" x="0" y="0" width="4" height="12">
<path fill-rule="evenodd" clip-rule="evenodd" d="M1.68879 2.87946C1.30363 2.87946 0.973495 2.73996 0.698378 2.46094C0.423262 2.18192 0.285706 1.84152 0.285706 1.43973C0.285706 1.03794 0.423262 0.697546 0.698378 0.418527C0.973495 0.139508 1.30363 0 1.68879 0C2.07396 0 2.40409 0.139508 2.67921 0.418527C2.95433 0.697546 3.09188 1.03794 3.09188 1.43973C3.09188 1.84152 2.95433 2.18192 2.67921 2.46094C2.40409 2.73996 2.07396 2.87946 1.68879 2.87946ZM1.68879 4.28571C2.07396 4.28571 2.40409 4.42522 2.67921 4.70424C2.95433 4.98326 3.09188 5.32366 3.09188 5.72545C3.09188 6.12723 2.95433 6.46763 2.67921 6.74665C2.40409 7.02567 2.07396 7.16518 1.68879 7.16518C1.30363 7.16518 0.973495 7.02567 0.698378 6.74665C0.423262 6.46763 0.285706 6.12723 0.285706 5.72545C0.285706 5.32366 0.423262 4.98326 0.698378 4.70424C0.973495 4.42522 1.30363 4.28571 1.68879 4.28571ZM1.68879 8.57143C2.07396 8.57143 2.40409 8.71094 2.67921 8.98996C2.95433 9.26897 3.09188 9.60937 3.09188 10.0112C3.09188 10.4129 2.95433 10.7533 2.67921 11.0324C2.40409 11.3114 2.07396 11.4509 1.68879 11.4509C1.30363 11.4509 0.973495 11.3114 0.698378 11.0324C0.423262 10.7533 0.285706 10.4129 0.285706 10.0112C0.285706 9.60937 0.423262 9.26897 0.698378 8.98996C0.973495 8.71094 1.30363 8.57143 1.68879 8.57143Z" fill="white"/>
</mask>
<g mask="url(#mask0_1_344)">
<path fill-rule="evenodd" clip-rule="evenodd" d="M-35.6333 -33.2142H40.4305V43.9286H-35.6333V-33.2142Z" fill="#AFB6C6"/>
</g>
</svg>
