<svg width="18" height="20" viewBox="0 0 18 20" fill="none" xmlns="http://www.w3.org/2000/svg">
<path fill-rule="evenodd" clip-rule="evenodd" d="M8.17196 0.312865C7.41474 0.485698 7.22049 0.597945 4.32081 2.53902C2.79678 3.55925 1.45062 4.48057 1.32935 4.58643C0.780751 5.06538 0.317016 5.8257 0.108913 6.58762L0 6.98626V11.9176V16.849L0.107879 17.2482C0.438797 18.4726 1.32771 19.4964 2.45549 19.9519C3.08539 20.2063 3.20364 20.2221 4.6366 20.2424L5.98559 20.2615L5.9986 17.0029L6.00998 14.1427C6.01102 13.8806 6.07194 13.6221 6.1881 13.3871V13.3871C6.48159 12.7934 7.00854 12.3928 7.65225 12.2742C8.0135 12.2077 9.97421 12.2077 10.3355 12.2742C10.9792 12.3928 11.5061 12.7934 11.7996 13.3871V13.3871C11.9158 13.6221 11.9767 13.8806 11.9777 14.1427L11.9891 17.0029L12.0021 20.2615L13.3511 20.2424C14.7841 20.2221 14.9023 20.2063 15.5322 19.9519C16.6609 19.496 17.542 18.4806 17.8788 17.2476L17.9877 16.849V11.9411C17.9877 7.26012 17.9835 7.01693 17.8978 6.68099C17.7708 6.18367 17.5789 5.74004 17.3263 5.36004C16.8965 4.71366 16.6671 4.53589 13.7548 2.59247C12.2533 1.59051 10.9218 0.718693 10.796 0.655102C10.6701 0.59151 10.3876 0.481377 10.168 0.410318C9.8274 0.300138 9.67222 0.278816 9.11127 0.264867C8.66806 0.253877 8.36194 0.269516 8.17196 0.312865Z" fill="#AFB6C6"/>
</svg>
