<svg width="14" height="14" viewBox="0 0 14 14" fill="none" xmlns="http://www.w3.org/2000/svg">
<path d="M12.0519 0.961271C11.3463 0.256887 10.2036 0.256887 9.49797 0.961271L8.85867 1.60408L2.05335 8.40578L2.03889 8.42035C2.03538 8.42386 2.03538 8.42758 2.03165 8.42758C2.02442 8.43843 2.01358 8.44917 2.00646 8.46001C2.00646 8.46363 2.00273 8.46363 2.00273 8.46724C1.9955 8.47809 1.992 8.48532 1.98465 8.49617C1.98115 8.49979 1.98115 8.50329 1.97753 8.50702C1.97392 8.51786 1.9703 8.52509 1.96657 8.53594C1.96657 8.53944 1.96307 8.53944 1.96307 8.54317L0.453175 13.0836C0.408883 13.2129 0.442554 13.356 0.539839 13.4519C0.608198 13.5194 0.700399 13.5571 0.796328 13.5568C0.835535 13.5561 0.874404 13.55 0.911917 13.5387L5.44883 12.0252C5.45234 12.0252 5.45234 12.0252 5.45606 12.0217C5.46748 12.0183 5.47844 12.0135 5.48849 12.0071C5.49132 12.0068 5.4938 12.0055 5.49584 12.0036C5.50657 11.9964 5.52103 11.9891 5.53188 11.9818C5.54261 11.9747 5.55358 11.9639 5.56442 11.9566C5.56804 11.9529 5.57154 11.9529 5.57154 11.9494C5.57527 11.9458 5.5825 11.9423 5.58612 11.9349L13.0307 4.49031C13.7351 3.78468 13.7351 2.64201 13.0307 1.93649L12.0519 0.961271ZM5.33324 11.1763L2.8192 8.66238L9.11154 2.37004L11.6256 4.88397L5.33324 11.1763ZM2.46509 9.33061L4.6614 11.5268L1.36343 12.6248L2.46509 9.33061ZM12.5215 3.98456L12.1386 4.3711L9.6244 1.85695L10.0111 1.47052C10.434 1.04794 11.1195 1.04794 11.5425 1.47052L12.525 2.45297C12.9447 2.87782 12.9432 3.56175 12.5215 3.98456Z" fill="white"/>
<path d="M12.0519 0.961271C11.3463 0.256887 10.2036 0.256887 9.49797 0.961271L8.85867 1.60408L2.05335 8.40578L2.03889 8.42035C2.03538 8.42386 2.03538 8.42758 2.03165 8.42758C2.02442 8.43843 2.01358 8.44917 2.00646 8.46001C2.00646 8.46363 2.00273 8.46363 2.00273 8.46724C1.9955 8.47809 1.992 8.48532 1.98465 8.49617C1.98115 8.49979 1.98115 8.50329 1.97753 8.50702C1.97392 8.51786 1.9703 8.52509 1.96657 8.53594C1.96657 8.53944 1.96307 8.53944 1.96307 8.54317L0.453175 13.0836C0.408883 13.2129 0.442554 13.356 0.539839 13.4519C0.608198 13.5194 0.700399 13.5571 0.796328 13.5568C0.835535 13.5561 0.874404 13.55 0.911917 13.5387L5.44883 12.0252C5.45234 12.0252 5.45234 12.0252 5.45606 12.0217C5.46748 12.0183 5.47844 12.0135 5.48849 12.0071C5.49132 12.0068 5.4938 12.0055 5.49584 12.0036C5.50657 11.9964 5.52103 11.9891 5.53188 11.9818C5.54261 11.9747 5.55358 11.9639 5.56442 11.9566C5.56804 11.9529 5.57154 11.9529 5.57154 11.9494C5.57527 11.9458 5.5825 11.9423 5.58612 11.9349L13.0307 4.49031C13.7351 3.78468 13.7351 2.64201 13.0307 1.93649L12.0519 0.961271ZM5.33324 11.1763L2.8192 8.66238L9.11154 2.37004L11.6256 4.88397L5.33324 11.1763ZM2.46509 9.33061L4.6614 11.5268L1.36343 12.6248L2.46509 9.33061ZM12.5215 3.98456L12.1386 4.3711L9.6244 1.85695L10.0111 1.47052C10.434 1.04794 11.1195 1.04794 11.5425 1.47052L12.525 2.45297C12.9447 2.87782 12.9432 3.56175 12.5215 3.98456Z" fill="#1E212A" fill-opacity="0.8"/>
<path d="M12.0519 0.961271C11.3463 0.256887 10.2036 0.256887 9.49797 0.961271L8.85867 1.60408L2.05335 8.40578L2.03889 8.42035C2.03538 8.42386 2.03538 8.42758 2.03165 8.42758C2.02442 8.43843 2.01358 8.44917 2.00646 8.46001C2.00646 8.46363 2.00273 8.46363 2.00273 8.46724C1.9955 8.47809 1.992 8.48532 1.98465 8.49617C1.98115 8.49979 1.98115 8.50329 1.97753 8.50702C1.97392 8.51786 1.9703 8.52509 1.96657 8.53594C1.96657 8.53944 1.96307 8.53944 1.96307 8.54317L0.453175 13.0836C0.408883 13.2129 0.442554 13.356 0.539839 13.4519C0.608198 13.5194 0.700399 13.5571 0.796328 13.5568C0.835535 13.5561 0.874404 13.55 0.911917 13.5387L5.44883 12.0252C5.45234 12.0252 5.45234 12.0252 5.45606 12.0217C5.46748 12.0183 5.47844 12.0135 5.48849 12.0071C5.49132 12.0068 5.4938 12.0055 5.49584 12.0036C5.50657 11.9964 5.52103 11.9891 5.53188 11.9818C5.54261 11.9747 5.55358 11.9639 5.56442 11.9566C5.56804 11.9529 5.57154 11.9529 5.57154 11.9494C5.57527 11.9458 5.5825 11.9423 5.58612 11.9349L13.0307 4.49031C13.7351 3.78468 13.7351 2.64201 13.0307 1.93649L12.0519 0.961271ZM5.33324 11.1763L2.8192 8.66238L9.11154 2.37004L11.6256 4.88397L5.33324 11.1763ZM2.46509 9.33061L4.6614 11.5268L1.36343 12.6248L2.46509 9.33061ZM12.5215 3.98456L12.1386 4.3711L9.6244 1.85695L10.0111 1.47052C10.434 1.04794 11.1195 1.04794 11.5425 1.47052L12.525 2.45297C12.9447 2.87782 12.9432 3.56175 12.5215 3.98456Z" stroke="white" stroke-width="0.3"/>
<path d="M12.0519 0.961271C11.3463 0.256887 10.2036 0.256887 9.49797 0.961271L8.85867 1.60408L2.05335 8.40578L2.03889 8.42035C2.03538 8.42386 2.03538 8.42758 2.03165 8.42758C2.02442 8.43843 2.01358 8.44917 2.00646 8.46001C2.00646 8.46363 2.00273 8.46363 2.00273 8.46724C1.9955 8.47809 1.992 8.48532 1.98465 8.49617C1.98115 8.49979 1.98115 8.50329 1.97753 8.50702C1.97392 8.51786 1.9703 8.52509 1.96657 8.53594C1.96657 8.53944 1.96307 8.53944 1.96307 8.54317L0.453175 13.0836C0.408883 13.2129 0.442554 13.356 0.539839 13.4519C0.608198 13.5194 0.700399 13.5571 0.796328 13.5568C0.835535 13.5561 0.874404 13.55 0.911917 13.5387L5.44883 12.0252C5.45234 12.0252 5.45234 12.0252 5.45606 12.0217C5.46748 12.0183 5.47844 12.0135 5.48849 12.0071C5.49132 12.0068 5.4938 12.0055 5.49584 12.0036C5.50657 11.9964 5.52103 11.9891 5.53188 11.9818C5.54261 11.9747 5.55358 11.9639 5.56442 11.9566C5.56804 11.9529 5.57154 11.9529 5.57154 11.9494C5.57527 11.9458 5.5825 11.9423 5.58612 11.9349L13.0307 4.49031C13.7351 3.78468 13.7351 2.64201 13.0307 1.93649L12.0519 0.961271ZM5.33324 11.1763L2.8192 8.66238L9.11154 2.37004L11.6256 4.88397L5.33324 11.1763ZM2.46509 9.33061L4.6614 11.5268L1.36343 12.6248L2.46509 9.33061ZM12.5215 3.98456L12.1386 4.3711L9.6244 1.85695L10.0111 1.47052C10.434 1.04794 11.1195 1.04794 11.5425 1.47052L12.525 2.45297C12.9447 2.87782 12.9432 3.56175 12.5215 3.98456Z" stroke="#1E212A" stroke-opacity="0.8" stroke-width="0.3"/>
</svg>
