<svg width="20" height="20" viewBox="0 0 20 20" fill="none" xmlns="http://www.w3.org/2000/svg">
<path fill-rule="evenodd" clip-rule="evenodd" d="M6.49886 0.619454C5.60578 0.934758 4.23202 1.72765 3.72401 2.22101C3.34741 2.58676 3.2667 3.0669 3.47664 3.69279C3.63684 4.17034 3.6499 4.84956 3.50756 5.29935C3.2014 6.26688 2.38693 6.95654 1.36775 7.11118C0.832405 7.19239 0.491813 7.41422 0.287508 7.81469C0.100187 8.18191 -0.0336793 9.40285 0.0074654 10.3694C0.0582078 11.5627 0.170584 11.9794 0.52578 12.2921C0.738181 12.4791 0.918533 12.5488 1.43034 12.6421C2.00161 12.7462 2.35472 12.936 2.78653 13.3711C3.33906 13.928 3.55522 14.4533 3.55184 15.2308C3.55021 15.6055 3.53356 15.695 3.38897 16.1071C3.03194 17.1247 3.2203 17.4956 4.53914 18.372C4.98748 18.6699 5.87026 19.1275 6.36633 19.3191C6.87743 19.5164 7.17045 19.521 7.53808 19.3373C7.70324 19.2548 7.85217 19.1393 7.95161 19.0166C8.43633 18.4184 8.76758 18.1686 9.32637 17.9798C10.3553 17.6323 11.4705 17.9651 12.1845 18.833C12.5835 19.3181 13.0827 19.4904 13.6025 19.3224C14.0129 19.1899 14.9161 18.7185 15.4786 18.3432C16.1926 17.8669 16.5574 17.5357 16.6787 17.2538C16.8327 16.8957 16.8335 16.7035 16.6827 16.2532C16.5143 15.7504 16.4709 15.1345 16.573 14.6995C16.7993 13.7362 17.5352 12.9963 18.4981 12.764C19.1875 12.5977 19.2155 12.5861 19.452 12.3699C19.6177 12.2185 19.7059 12.0966 19.766 11.9358C20.0843 11.085 20.076 8.63654 19.7524 7.92469C19.6463 7.69142 19.4225 7.44476 19.2233 7.34178C19.1527 7.30526 18.9653 7.24839 18.8068 7.21534C17.6996 6.98445 16.9258 6.27139 16.6598 5.23676C16.5622 4.85707 16.5941 4.14522 16.7244 3.79711C16.8554 3.44684 16.8582 3.03193 16.7313 2.75389C16.6123 2.49317 16.5051 2.37883 16.0418 2.01858C15.1253 1.30602 13.6959 0.581356 13.1097 0.532241C12.6737 0.495728 12.4934 0.584193 11.9472 1.10276C11.59 1.44181 11.401 1.58686 11.1634 1.70428C10.42 2.07158 9.60662 2.07129 8.851 1.70341C8.59336 1.57797 8.4264 1.45069 8.06157 1.10167C7.70766 0.763085 7.55139 0.642864 7.39691 0.590202C7.11941 0.495644 6.82209 0.505326 6.49886 0.619454ZM10.7991 6.75373C11.6676 6.98984 12.3332 7.46529 12.8033 8.18549C13.8023 9.71578 13.3582 11.7834 11.814 12.7915C11.2458 13.1624 10.7325 13.3095 10.0056 13.3095C9.06256 13.3095 8.30251 12.9991 7.65146 12.348C7.00044 11.697 6.69002 10.9369 6.69002 9.99386C6.69002 9.26703 6.83707 8.75368 7.208 8.18549C7.71004 7.41643 8.49083 6.89269 9.40057 6.71476C9.75593 6.64524 10.4736 6.66523 10.7991 6.75373Z" fill="#AFB6C6"/>
</svg>
