<svg width="20" height="20" viewBox="0 0 20 20" fill="none" xmlns="http://www.w3.org/2000/svg">
<path fill-rule="evenodd" clip-rule="evenodd" d="M4.12091 0.0491948C3.83996 0.174045 3.7498 0.381282 3.7498 0.902012V1.2441L2.86108 1.24476C1.85716 1.24555 1.60914 1.28113 1.1872 1.48497C0.829451 1.65783 0.416422 2.06668 0.244616 2.41811C-0.0150454 2.94931 0.000814753 2.4165 0.000189721 10.6231C-0.000396247 17.9232 0.00112727 18.0743 0.0771468 18.3717C0.177191 18.7628 0.347044 19.0578 0.641942 19.3527C0.93684 19.6476 1.23186 19.8175 1.62301 19.9175C1.92072 19.9937 2.07401 19.9951 10.0001 19.9951C17.9164 19.9951 18.0799 19.9935 18.3761 19.9178C18.7841 19.8135 19.0322 19.6723 19.3386 19.37C19.6516 19.0612 19.8205 18.7728 19.9231 18.3717C19.9991 18.0743 20.0006 17.9232 20.0001 10.6231C19.9994 2.4165 20.0153 2.94931 19.7556 2.41811C19.5857 2.07063 19.171 1.65846 18.8175 1.48595C18.4009 1.28262 18.1437 1.24555 17.1435 1.24476L16.2591 1.2441L16.2445 0.816539C16.2323 0.461169 16.2163 0.370852 16.1498 0.281785C15.8766 -0.0841324 15.4053 -0.0929219 15.1672 0.263503C15.0886 0.381126 15.0785 0.44445 15.0785 0.820172V1.2441H13.7698H12.4612V0.852205C12.4612 0.397182 12.4115 0.242838 12.2214 0.107284C12.0475 -0.0168242 11.7349 -0.0231917 11.5777 0.094119C11.3438 0.268777 11.3098 0.355734 11.2956 0.817125L11.2823 1.2441H10.0001H8.71791L8.70466 0.817125C8.69041 0.355734 8.65646 0.268777 8.4225 0.094119C8.26538 -0.0231917 7.95275 -0.0168242 7.7788 0.107284C7.58871 0.242838 7.53906 0.397182 7.53906 0.852205V1.2441H6.2304H4.92173V0.820172C4.92173 0.44445 4.91166 0.381126 4.83306 0.263503C4.67371 0.0249748 4.37655 -0.0644439 4.12091 0.0491948ZM3.75617 2.83598C3.77343 3.31843 3.82828 3.45175 4.06411 3.5843C4.34374 3.74146 4.67797 3.65528 4.8438 3.38324C4.90853 3.2771 4.92146 3.18608 4.92158 2.83598L4.92173 2.41604H6.2304H7.53906L7.53921 2.83598C7.53933 3.18608 7.55226 3.2771 7.61699 3.38324C7.85497 3.77357 8.4159 3.75626 8.6231 3.35218C8.69658 3.20885 8.71099 3.1181 8.71099 2.7984V2.41604H10.0001H11.2893V2.7984C11.2893 3.1181 11.3037 3.20885 11.3771 3.35218C11.5843 3.75626 12.1453 3.77357 12.3833 3.38324C12.448 3.2771 12.4609 3.18608 12.461 2.83598L12.4612 2.41604H13.7698H15.0785L15.0787 2.83598C15.0788 3.30929 15.1297 3.445 15.3614 3.59051C15.521 3.69075 15.8351 3.67833 15.9862 3.56582C16.1817 3.42027 16.2279 3.28905 16.2442 2.83348L16.2593 2.411L17.1826 2.4233L18.106 2.43557L18.3149 2.55128C18.5314 2.67121 18.7021 2.87672 18.7834 3.11525C18.8126 3.20065 18.8287 3.5666 18.8287 4.1407V5.03336H10.0001H1.17154V4.1407C1.17154 3.56074 1.18756 3.20155 1.21725 3.11525C1.28631 2.9147 1.42827 2.71961 1.57992 2.61695C1.84556 2.43713 1.95978 2.41955 2.87628 2.41776L3.74117 2.41604L3.75617 2.83598ZM18.8287 12.0971C18.8287 18.7175 18.8522 18.2075 18.5326 18.5271C18.21 18.8497 18.975 18.8231 10.0001 18.8231C1.02528 18.8231 1.7902 18.8497 1.46761 18.5271C1.14806 18.2075 1.17154 18.7175 1.17154 12.0971V6.2053H10.0001H18.8287V12.0971ZM3.12438 8.24642C3.05336 8.29478 2.95847 8.38396 2.91351 8.44463C2.83405 8.55186 2.83178 8.59503 2.83178 9.99459C2.83178 11.3942 2.83405 11.4373 2.91351 11.5445C2.95847 11.6052 3.05336 11.6943 3.12438 11.7427C3.25243 11.8298 3.26544 11.8306 4.66781 11.8306C6.07019 11.8306 6.0832 11.8298 6.21125 11.7427C6.28227 11.6943 6.37716 11.6052 6.42212 11.5445C6.50158 11.4373 6.50385 11.3941 6.50385 9.99455C6.50385 8.59499 6.50158 8.55182 6.42212 8.44459C6.37716 8.38392 6.28227 8.29478 6.21125 8.24642C6.0832 8.15926 6.07019 8.15852 4.66781 8.15852C3.26544 8.15852 3.25243 8.15926 3.12438 8.24642ZM13.789 8.24642C13.718 8.29478 13.6231 8.38392 13.5781 8.44459C13.4987 8.55182 13.4964 8.59499 13.4964 9.99455C13.4964 11.3941 13.4987 11.4373 13.5781 11.5445C13.6231 11.6052 13.718 11.6943 13.789 11.7427C13.917 11.8298 13.9301 11.8306 15.3324 11.8306C16.7348 11.8306 16.7478 11.8298 16.8759 11.7427C16.9469 11.6943 17.0418 11.6052 17.0867 11.5445C17.1662 11.4373 17.1685 11.3941 17.1685 9.99455C17.1685 8.59499 17.1662 8.55182 17.0867 8.44459C17.0418 8.38392 16.9469 8.29478 16.8759 8.24642C16.7478 8.15926 16.7348 8.15852 15.3324 8.15852C13.9301 8.15852 13.917 8.15926 13.789 8.24642ZM11.1541 8.5501C11.0831 8.57206 10.7548 8.86922 10.3047 9.31878L9.57108 10.0517L9.30708 9.79283C9.16184 9.65044 8.98679 9.50574 8.91804 9.47125C8.45625 9.23979 7.94091 9.7252 8.12749 10.2159C8.15034 10.2759 8.39984 10.5582 8.68197 10.8431C9.27176 11.4388 9.41771 11.5248 9.69866 11.4422C9.83582 11.4019 10.0259 11.2325 10.8345 10.4305C11.3686 9.90068 11.83 9.41062 11.8599 9.34147C12.0537 8.8934 11.6193 8.40631 11.1541 8.5501ZM5.35144 9.99455V10.6587H4.66781H3.98419V9.99455V9.33046H4.66781H5.35144V9.99455ZM16.0161 9.99455V10.6587H15.3324H14.6488V9.99455V9.33046H15.3324H16.0161V9.99455ZM3.23184 13.2136C3.03457 13.2853 2.96917 13.345 2.88503 13.5299C2.82084 13.6711 2.81389 13.8145 2.81311 15.0158C2.81225 16.3179 2.81409 16.3491 2.90014 16.5198C2.96437 16.6472 3.035 16.7178 3.16235 16.782C3.33294 16.868 3.36501 16.8699 4.66781 16.8699C5.97085 16.8699 6.00265 16.868 6.17238 16.782C6.27509 16.73 6.37802 16.6384 6.42482 16.5574C6.50014 16.4271 6.50385 16.3549 6.50385 15.0143C6.50385 13.6703 6.50033 13.602 6.42435 13.4727C6.3806 13.3982 6.28391 13.3016 6.2095 13.2578C6.08133 13.1825 6.00269 13.1778 4.72641 13.1693C3.66671 13.1622 3.34732 13.1717 3.23184 13.2136ZM8.57892 13.1982C8.51704 13.2173 8.42309 13.2734 8.37012 13.3228C8.16479 13.5146 8.16409 13.5203 8.16409 15.0261C8.16409 16.4163 8.16487 16.4298 8.25198 16.5578C8.30035 16.6288 8.38949 16.7237 8.45016 16.7687C8.55739 16.8481 8.60056 16.8504 10.0001 16.8504C11.3997 16.8504 11.4429 16.8481 11.5501 16.7687C11.6108 16.7237 11.6999 16.6288 11.7483 16.5578C11.8354 16.4297 11.8362 16.4167 11.8362 15.0143C11.8362 13.612 11.8354 13.599 11.7483 13.4709C11.6999 13.3999 11.6108 13.305 11.5501 13.26C11.4437 13.1811 11.3929 13.1781 10.0657 13.171C9.30985 13.1669 8.64083 13.1792 8.57892 13.1982ZM13.887 13.2165C13.6946 13.2858 13.5709 13.4233 13.5153 13.6297C13.4877 13.7323 13.4771 14.2442 13.4847 15.1038C13.4981 16.6086 13.4995 16.6156 13.8279 16.782C13.9976 16.868 14.0294 16.8699 15.3324 16.8699C16.6352 16.8699 16.6673 16.868 16.8379 16.782C16.9652 16.7178 17.0359 16.6472 17.1001 16.5198C17.1861 16.3492 17.188 16.3171 17.188 15.0143C17.188 13.0495 17.3172 13.1822 15.391 13.1693C14.2991 13.162 14.0137 13.1709 13.887 13.2165ZM5.33191 15.0143V15.6784H4.66781H4.00372L3.99294 15.055C3.98696 14.7121 3.99098 14.4084 4.0018 14.3802C4.01723 14.34 4.16377 14.3311 4.67672 14.3395L5.33191 14.3502V15.0143ZM10.6642 15.0143V15.698H10.0001H9.33603V15.0143V14.3307H10.0001H10.6642V15.0143ZM15.9965 15.0143V15.6784H15.3324H14.6683L14.6576 15.055C14.6516 14.7121 14.6556 14.4084 14.6664 14.3802C14.6818 14.34 14.8284 14.3311 15.3413 14.3395L15.9965 14.3502V15.0143Z" fill="#00A0EC"/>
</svg>
