<svg width="14" height="14" viewBox="0 0 14 14" fill="none" xmlns="http://www.w3.org/2000/svg">
<path d="M13.6295 5.01728C13.4722 4.8407 13.2572 4.72584 13.0229 4.69324V4.69275L9.36419 4.18733L7.91634 0.727702C7.70493 0.221308 7.12303 -0.0178164 6.61667 0.193596C6.37527 0.294391 6.18333 0.486301 6.08256 0.727702L4.63471 4.18733L0.975963 4.69275C0.430853 4.76862 0.0504606 5.27208 0.126338 5.81719C0.158947 6.05144 0.273799 6.26646 0.450384 6.4238L3.20699 8.88196L2.64059 12.7393C2.57923 13.131 2.75913 13.5212 3.09683 13.729C3.42978 13.9419 3.85805 13.9339 4.18284 13.7088L6.99942 11.7934L9.816 13.7107C10.2705 14.0192 10.889 13.9008 11.1975 13.4464C11.3377 13.2398 11.3951 12.9881 11.3583 12.7413L10.7919 8.88243L13.5485 6.42426C13.9594 6.05813 13.9957 5.42818 13.6295 5.01728ZM9.93941 8.32689C9.81608 8.43707 9.75643 8.60185 9.78059 8.76544L10.3706 12.8952L7.2772 10.792C7.11044 10.6786 6.89137 10.6786 6.7246 10.792L3.61305 12.8824L4.21825 8.76348C4.24175 8.60055 4.18212 8.43667 4.05944 8.32692L1.10963 5.66814L5.04664 5.12488C5.21902 5.10111 5.36596 4.98799 5.43306 4.82745L7.0053 1.09988C7.00708 1.10207 7.00841 1.10458 7.00924 1.10726L8.56527 4.82549C8.63236 4.98603 8.77933 5.09915 8.95168 5.12292L12.8936 5.69027L9.93941 8.32689Z" fill="white"/>
<path d="M13.6295 5.01728C13.4722 4.8407 13.2572 4.72584 13.0229 4.69324V4.69275L9.36419 4.18733L7.91634 0.727702C7.70493 0.221308 7.12303 -0.0178164 6.61667 0.193596C6.37527 0.294391 6.18333 0.486301 6.08256 0.727702L4.63471 4.18733L0.975963 4.69275C0.430853 4.76862 0.0504606 5.27208 0.126338 5.81719C0.158947 6.05144 0.273799 6.26646 0.450384 6.4238L3.20699 8.88196L2.64059 12.7393C2.57923 13.131 2.75913 13.5212 3.09683 13.729C3.42978 13.9419 3.85805 13.9339 4.18284 13.7088L6.99942 11.7934L9.816 13.7107C10.2705 14.0192 10.889 13.9008 11.1975 13.4464C11.3377 13.2398 11.3951 12.9881 11.3583 12.7413L10.7919 8.88243L13.5485 6.42426C13.9594 6.05813 13.9957 5.42818 13.6295 5.01728ZM9.93941 8.32689C9.81608 8.43707 9.75643 8.60185 9.78059 8.76544L10.3706 12.8952L7.2772 10.792C7.11044 10.6786 6.89137 10.6786 6.7246 10.792L3.61305 12.8824L4.21825 8.76348C4.24175 8.60055 4.18212 8.43667 4.05944 8.32692L1.10963 5.66814L5.04664 5.12488C5.21902 5.10111 5.36596 4.98799 5.43306 4.82745L7.0053 1.09988C7.00708 1.10207 7.00841 1.10458 7.00924 1.10726L8.56527 4.82549C8.63236 4.98603 8.77933 5.09915 8.95168 5.12292L12.8936 5.69027L9.93941 8.32689Z" fill="#1E212A" fill-opacity="0.8"/>
<path d="M13.6295 5.01728C13.4722 4.8407 13.2572 4.72584 13.0229 4.69324V4.69275L9.36419 4.18733L7.91634 0.727702C7.70493 0.221308 7.12303 -0.0178164 6.61667 0.193596C6.37527 0.294391 6.18333 0.486301 6.08256 0.727702L4.63471 4.18733L0.975963 4.69275C0.430853 4.76862 0.0504606 5.27208 0.126338 5.81719C0.158947 6.05144 0.273799 6.26646 0.450384 6.4238L3.20699 8.88196L2.64059 12.7393C2.57923 13.131 2.75913 13.5212 3.09683 13.729C3.42978 13.9419 3.85805 13.9339 4.18284 13.7088L6.99942 11.7934L9.816 13.7107C10.2705 14.0192 10.889 13.9008 11.1975 13.4464C11.3377 13.2398 11.3951 12.9881 11.3583 12.7413L10.7919 8.88243L13.5485 6.42426C13.9594 6.05813 13.9957 5.42818 13.6295 5.01728ZM9.93941 8.32689C9.81608 8.43707 9.75643 8.60185 9.78059 8.76544L10.3706 12.8952L7.2772 10.792C7.11044 10.6786 6.89137 10.6786 6.7246 10.792L3.61305 12.8824L4.21825 8.76348C4.24175 8.60055 4.18212 8.43667 4.05944 8.32692L1.10963 5.66814L5.04664 5.12488C5.21902 5.10111 5.36596 4.98799 5.43306 4.82745L7.0053 1.09988C7.00708 1.10207 7.00841 1.10458 7.00924 1.10726L8.56527 4.82549C8.63236 4.98603 8.77933 5.09915 8.95168 5.12292L12.8936 5.69027L9.93941 8.32689Z" stroke="white" stroke-width="0.15"/>
<path d="M13.6295 5.01728C13.4722 4.8407 13.2572 4.72584 13.0229 4.69324V4.69275L9.36419 4.18733L7.91634 0.727702C7.70493 0.221308 7.12303 -0.0178164 6.61667 0.193596C6.37527 0.294391 6.18333 0.486301 6.08256 0.727702L4.63471 4.18733L0.975963 4.69275C0.430853 4.76862 0.0504606 5.27208 0.126338 5.81719C0.158947 6.05144 0.273799 6.26646 0.450384 6.4238L3.20699 8.88196L2.64059 12.7393C2.57923 13.131 2.75913 13.5212 3.09683 13.729C3.42978 13.9419 3.85805 13.9339 4.18284 13.7088L6.99942 11.7934L9.816 13.7107C10.2705 14.0192 10.889 13.9008 11.1975 13.4464C11.3377 13.2398 11.3951 12.9881 11.3583 12.7413L10.7919 8.88243L13.5485 6.42426C13.9594 6.05813 13.9957 5.42818 13.6295 5.01728ZM9.93941 8.32689C9.81608 8.43707 9.75643 8.60185 9.78059 8.76544L10.3706 12.8952L7.2772 10.792C7.11044 10.6786 6.89137 10.6786 6.7246 10.792L3.61305 12.8824L4.21825 8.76348C4.24175 8.60055 4.18212 8.43667 4.05944 8.32692L1.10963 5.66814L5.04664 5.12488C5.21902 5.10111 5.36596 4.98799 5.43306 4.82745L7.0053 1.09988C7.00708 1.10207 7.00841 1.10458 7.00924 1.10726L8.56527 4.82549C8.63236 4.98603 8.77933 5.09915 8.95168 5.12292L12.8936 5.69027L9.93941 8.32689Z" stroke="#1E212A" stroke-opacity="0.8" stroke-width="0.15"/>
</svg>
